<?xml version="1.0" encoding="utf-8"?>
<svg xmlns="http://www.w3.org/2000/svg" xmlns:xlink="http://www.w3.org/1999/xlink" preserveAspectRatio="xMidYMid meet" version="1.0" viewBox="0.0 -13.7 500.0 403.7" zoomAndPan="magnify" style="fill: rgb(0, 0, 0);" role="img" aria-label="Filled Abstract Heart" width="50">
  <g id="__id12_s6o7eh6tot">
    <path d="M390.155,249.554c0,37.538-14.618,72.83-41.162,99.374c-27.397,27.397-63.386,41.096-99.374,41.096 s-71.977-13.699-99.374-41.096L41.162,239.845C14.618,213.301,0,178.009,0,140.471s14.618-72.83,41.162-99.374 c54.795-54.795,143.953-54.795,198.749,0L348.994,150.18C375.538,176.723,390.155,212.015,390.155,249.554z" opacity=".7" style="fill: rgb(8, 95, 206);"></path>
  </g>
  <g id="__id13_s6o7eh6tot">
    <path d="M500,140.471c0,37.539-14.618,72.83-41.162,99.374L349.755,348.928c-27.397,27.397-63.386,41.096-99.374,41.096 s-71.977-13.699-99.374-41.096c-26.544-26.544-41.162-61.836-41.162-99.374c0-37.539,14.618-72.831,41.162-99.374L260.09,41.096 c54.794-54.795,143.954-54.795,198.749,0C485.382,67.64,500,102.932,500,140.471z" opacity=".7" style="fill: rgb(61, 226, 255);"></path>
  </g>
</svg>

